<svg xmlns="http://www.w3.org/2000/svg" xmlns:xlink="http://www.w3.org/1999/xlink" width="512" zoomAndPan="magnify" viewBox="0 0 384 383.999986" height="512" preserveAspectRatio="xMidYMid meet" version="1.0"><defs><g/><clipPath id="caaaf01d05"><path d="M 229 79 L 249.890625 79 L 249.890625 100 L 229 100 Z M 229 79 " clip-rule="nonzero"/></clipPath></defs><path fill="#ffffff" d="M 236.507812 124.746094 C 231.792969 134.402344 223.023438 140.882812 214.121094 141.242188 C 205.609375 141.601562 200.375 138.394531 197.496094 135.613281 C 192.75 131.097656 190.390625 124.355469 190.390625 115.613281 C 190.390625 109.199219 185.15625 103.964844 178.707031 103.964844 C 171.574219 103.964844 165.910156 110.410156 167.21875 117.742188 C 168.039062 122.324219 171.636719 126.054688 176.1875 127.039062 C 177.628906 127.332031 179.066406 127.398438 180.441406 127.167969 C 183.75 126.675781 186.957031 128.609375 188.363281 131.621094 C 188.394531 131.683594 188.394531 131.71875 188.429688 131.75 C 190.71875 136.5625 187.742188 142.289062 182.472656 143.007812 C 179.230469 143.433594 175.859375 143.304688 172.523438 142.582031 C 161.359375 140.097656 152.785156 130.636719 151.3125 119.28125 C 149.085938 102.425781 162.210938 87.992188 178.675781 87.992188 C 193.894531 87.992188 206.296875 100.394531 206.296875 115.613281 C 206.296875 119.671875 207.085938 122.75 208.492188 124.09375 C 209.441406 124.976562 211.078125 125.402344 213.433594 125.304688 C 215.496094 125.203125 219.03125 124.222656 222.859375 118.167969 C 227.277344 111.195312 229.4375 85.863281 206.921875 71.332031 C 196.285156 64.460938 182.898438 62.855469 170.949219 67.042969 C 149.511719 74.605469 134.390625 95.617188 135.863281 119.96875 C 137.4375 146.117188 158.515625 167.425781 184.664062 169.226562 C 215.429688 171.351562 241.023438 147.035156 241.023438 116.726562 C 241.023438 114.863281 240.925781 113.03125 240.730469 111.230469 C 239.847656 117.382812 237.847656 121.964844 236.507812 124.746094 Z M 236.507812 124.746094 " fill-opacity="1" fill-rule="nonzero"/><g clip-path="url(#caaaf01d05)"><path fill="#ffffff" d="M 249.597656 89.824219 C 249.597656 90.480469 249.535156 91.128906 249.40625 91.773438 C 249.28125 92.414062 249.089844 93.039062 248.839844 93.644531 C 248.589844 94.25 248.28125 94.824219 247.917969 95.371094 C 247.554688 95.914062 247.140625 96.417969 246.675781 96.882812 C 246.210938 97.347656 245.707031 97.761719 245.164062 98.125 C 244.617188 98.488281 244.042969 98.796875 243.4375 99.046875 C 242.832031 99.296875 242.207031 99.488281 241.5625 99.613281 C 240.921875 99.742188 240.273438 99.808594 239.617188 99.808594 C 238.960938 99.808594 238.3125 99.742188 237.667969 99.613281 C 237.027344 99.488281 236.402344 99.296875 235.796875 99.046875 C 235.191406 98.796875 234.617188 98.488281 234.070312 98.125 C 233.527344 97.761719 233.023438 97.347656 232.558594 96.882812 C 232.09375 96.417969 231.679688 95.914062 231.316406 95.371094 C 230.953125 94.824219 230.644531 94.25 230.394531 93.644531 C 230.144531 93.039062 229.953125 92.414062 229.828125 91.773438 C 229.699219 91.128906 229.632812 90.480469 229.632812 89.824219 C 229.632812 89.167969 229.699219 88.519531 229.828125 87.875 C 229.953125 87.234375 230.144531 86.609375 230.394531 86.003906 C 230.644531 85.398438 230.953125 84.824219 231.316406 84.277344 C 231.679688 83.734375 232.09375 83.230469 232.558594 82.765625 C 233.023438 82.300781 233.527344 81.886719 234.070312 81.523438 C 234.617188 81.160156 235.191406 80.851562 235.796875 80.601562 C 236.402344 80.351562 237.027344 80.160156 237.667969 80.035156 C 238.3125 79.90625 238.960938 79.84375 239.617188 79.84375 C 240.273438 79.84375 240.921875 79.90625 241.5625 80.035156 C 242.207031 80.160156 242.832031 80.351562 243.4375 80.601562 C 244.042969 80.851562 244.617188 81.160156 245.164062 81.523438 C 245.707031 81.886719 246.210938 82.300781 246.675781 82.765625 C 247.140625 83.230469 247.554688 83.734375 247.917969 84.277344 C 248.28125 84.824219 248.589844 85.398438 248.839844 86.003906 C 249.089844 86.609375 249.28125 87.234375 249.40625 87.875 C 249.535156 88.519531 249.597656 89.167969 249.597656 89.824219 Z M 249.597656 89.824219 " fill-opacity="1" fill-rule="nonzero"/></g><g fill="#000000" fill-opacity="1"><g transform="translate(50.753806, 235.669046)"><g><path d="M 4 -35.5625 L 16.46875 -35.5625 L 16.46875 0 L 4 0 Z M 10.234375 -39.5 C 7.960938 -39.5 6.125 -40.132812 4.71875 -41.40625 C 3.320312 -42.675781 2.625 -44.253906 2.625 -46.140625 C 2.625 -48.015625 3.320312 -49.585938 4.71875 -50.859375 C 6.125 -52.128906 7.960938 -52.765625 10.234375 -52.765625 C 12.503906 -52.765625 14.335938 -52.160156 15.734375 -50.953125 C 17.140625 -49.753906 17.84375 -48.210938 17.84375 -46.328125 C 17.84375 -44.359375 17.140625 -42.726562 15.734375 -41.4375 C 14.335938 -40.144531 12.503906 -39.5 10.234375 -39.5 Z M 10.234375 -39.5 "/></g></g></g><g fill="#000000" fill-opacity="1"><g transform="translate(64.601866, 235.669046)"><g><path d="M 27.171875 -36.15625 C 31.585938 -36.15625 35.140625 -34.84375 37.828125 -32.21875 C 40.523438 -29.59375 41.875 -25.632812 41.875 -20.34375 L 41.875 0 L 29.40625 0 L 29.40625 -18.3125 C 29.40625 -23.164062 27.457031 -25.59375 23.5625 -25.59375 C 21.414062 -25.59375 19.695312 -24.890625 18.40625 -23.484375 C 17.113281 -22.085938 16.46875 -19.988281 16.46875 -17.1875 L 16.46875 0 L 4 0 L 4 -35.5625 L 15.875 -35.5625 L 15.875 -31.703125 C 17.28125 -33.140625 18.941406 -34.238281 20.859375 -35 C 22.785156 -35.769531 24.890625 -36.15625 27.171875 -36.15625 Z M 27.171875 -36.15625 "/></g></g></g><g fill="#000000" fill-opacity="1"><g transform="translate(103.586466, 235.669046)"><g><path d="M 22.1875 0.59375 C 18.25 0.59375 14.722656 -0.191406 11.609375 -1.765625 C 8.503906 -3.347656 6.085938 -5.535156 4.359375 -8.328125 C 2.628906 -11.128906 1.765625 -14.300781 1.765625 -17.84375 C 1.765625 -21.394531 2.628906 -24.554688 4.359375 -27.328125 C 6.085938 -30.109375 8.503906 -32.273438 11.609375 -33.828125 C 14.722656 -35.378906 18.25 -36.15625 22.1875 -36.15625 C 26.207031 -36.15625 29.679688 -35.289062 32.609375 -33.5625 C 35.546875 -31.832031 37.625 -29.4375 38.84375 -26.375 L 29.203125 -21.453125 C 27.585938 -24.648438 25.222656 -26.25 22.109375 -26.25 C 19.878906 -26.25 18.03125 -25.503906 16.5625 -24.015625 C 15.101562 -22.523438 14.375 -20.46875 14.375 -17.84375 C 14.375 -15.175781 15.101562 -13.085938 16.5625 -11.578125 C 18.03125 -10.066406 19.878906 -9.3125 22.109375 -9.3125 C 25.222656 -9.3125 27.585938 -10.910156 29.203125 -14.109375 L 38.84375 -9.1875 C 37.625 -6.125 35.546875 -3.726562 32.609375 -2 C 29.679688 -0.269531 26.207031 0.59375 22.1875 0.59375 Z M 22.1875 0.59375 "/></g></g></g><g fill="#000000" fill-opacity="1"><g transform="translate(136.467417, 235.669046)"><g><path d="M 4 -48.6875 L 16.46875 -48.6875 L 16.46875 0 L 4 0 Z M 4 -48.6875 "/></g></g></g><g fill="#000000" fill-opacity="1"><g transform="translate(150.315477, 235.669046)"><g><path d="M 41.40625 -35.5625 L 41.40625 0 L 29.53125 0 L 29.53125 -3.8125 C 28.21875 -2.363281 26.640625 -1.265625 24.796875 -0.515625 C 22.960938 0.222656 21.019531 0.59375 18.96875 0.59375 C 14.375 0.59375 10.707031 -0.757812 7.96875 -3.46875 C 5.238281 -6.1875 3.875 -10.257812 3.875 -15.6875 L 3.875 -35.5625 L 16.34375 -35.5625 L 16.34375 -17.71875 C 16.34375 -15.050781 16.84375 -13.101562 17.84375 -11.875 C 18.851562 -10.65625 20.320312 -10.046875 22.25 -10.046875 C 24.21875 -10.046875 25.820312 -10.734375 27.0625 -12.109375 C 28.3125 -13.484375 28.9375 -15.59375 28.9375 -18.4375 L 28.9375 -35.5625 Z M 41.40625 -35.5625 "/></g></g></g><g fill="#000000" fill-opacity="1"><g transform="translate(189.037563, 235.669046)"><g><path d="M 16.9375 0.59375 C 13.957031 0.59375 11.023438 0.253906 8.140625 -0.421875 C 5.253906 -1.097656 2.9375 -1.984375 1.1875 -3.078125 L 4.921875 -11.609375 C 6.535156 -10.609375 8.457031 -9.8125 10.6875 -9.21875 C 12.925781 -8.625 15.140625 -8.328125 17.328125 -8.328125 C 19.335938 -8.328125 20.769531 -8.535156 21.625 -8.953125 C 22.476562 -9.367188 22.90625 -9.972656 22.90625 -10.765625 C 22.90625 -11.546875 22.390625 -12.097656 21.359375 -12.421875 C 20.328125 -12.753906 18.695312 -13.078125 16.46875 -13.390625 C 13.625 -13.734375 11.207031 -14.191406 9.21875 -14.765625 C 7.226562 -15.335938 5.507812 -16.390625 4.0625 -17.921875 C 2.625 -19.453125 1.90625 -21.59375 1.90625 -24.34375 C 1.90625 -26.625 2.582031 -28.648438 3.9375 -30.421875 C 5.289062 -32.191406 7.269531 -33.585938 9.875 -34.609375 C 12.476562 -35.640625 15.597656 -36.15625 19.234375 -36.15625 C 21.804688 -36.15625 24.363281 -35.890625 26.90625 -35.359375 C 29.445312 -34.835938 31.566406 -34.097656 33.265625 -33.140625 L 29.53125 -24.671875 C 26.382812 -26.421875 22.972656 -27.296875 19.296875 -27.296875 C 17.328125 -27.296875 15.878906 -27.066406 14.953125 -26.609375 C 14.035156 -26.148438 13.578125 -25.550781 13.578125 -24.8125 C 13.578125 -23.976562 14.082031 -23.394531 15.09375 -23.0625 C 16.101562 -22.738281 17.765625 -22.398438 20.078125 -22.046875 C 23.015625 -21.609375 25.441406 -21.101562 27.359375 -20.53125 C 29.285156 -19.96875 30.957031 -18.929688 32.375 -17.421875 C 33.800781 -15.910156 34.515625 -13.800781 34.515625 -11.09375 C 34.515625 -8.863281 33.835938 -6.859375 32.484375 -5.078125 C 31.128906 -3.304688 29.128906 -1.914062 26.484375 -0.90625 C 23.835938 0.09375 20.65625 0.59375 16.9375 0.59375 Z M 16.9375 0.59375 "/></g></g></g><g fill="#000000" fill-opacity="1"><g transform="translate(218.243203, 235.669046)"><g><path d="M 4 -35.5625 L 16.46875 -35.5625 L 16.46875 0 L 4 0 Z M 10.234375 -39.5 C 7.960938 -39.5 6.125 -40.132812 4.71875 -41.40625 C 3.320312 -42.675781 2.625 -44.253906 2.625 -46.140625 C 2.625 -48.015625 3.320312 -49.585938 4.71875 -50.859375 C 6.125 -52.128906 7.960938 -52.765625 10.234375 -52.765625 C 12.503906 -52.765625 14.335938 -52.160156 15.734375 -50.953125 C 17.140625 -49.753906 17.84375 -48.210938 17.84375 -46.328125 C 17.84375 -44.359375 17.140625 -42.726562 15.734375 -41.4375 C 14.335938 -40.144531 12.503906 -39.5 10.234375 -39.5 Z M 10.234375 -39.5 "/></g></g></g><g fill="#000000" fill-opacity="1"><g transform="translate(232.091269, 235.669046)"><g><path d="M 41.46875 -35.5625 L 26.78125 0 L 13.90625 0 L -0.71875 -35.5625 L 12.078125 -35.5625 L 20.609375 -13.84375 L 29.59375 -35.5625 Z M 41.46875 -35.5625 "/></g></g></g><g fill="#000000" fill-opacity="1"><g transform="translate(266.087952, 235.669046)"><g><path d="M 35.375 -8.921875 L 15.953125 -8.921875 L 12.34375 0 L -0.921875 0 L 19.359375 -45.9375 L 32.15625 -45.9375 L 52.5 0 L 38.984375 0 Z M 31.5625 -18.5 L 25.65625 -33.203125 L 19.75 -18.5 Z M 31.5625 -18.5 "/></g></g></g><g fill="#000000" fill-opacity="1"><g transform="translate(310.979305, 235.669046)"><g><path d="M 4.59375 -45.9375 L 17.59375 -45.9375 L 17.59375 0 L 4.59375 0 Z M 4.59375 -45.9375 "/></g></g></g><g fill="#ffffff" fill-opacity="1"><g transform="translate(73.644871, 273.89595)"><g><path d="M 13.34375 -4.515625 L 3.9375 -4.515625 L 1.90625 0 L 0.046875 0 L 7.765625 -16.890625 L 9.53125 -16.890625 L 17.25 0 L 15.375 0 Z M 12.6875 -5.953125 L 8.640625 -15.03125 L 4.578125 -5.953125 Z M 12.6875 -5.953125 "/></g></g></g><g fill="#ffffff" fill-opacity="1"><g transform="translate(97.559107, 273.89595)"><g><path d="M 10.078125 0.140625 C 8.410156 0.140625 6.90625 -0.226562 5.5625 -0.96875 C 4.21875 -1.707031 3.160156 -2.726562 2.390625 -4.03125 C 1.628906 -5.34375 1.25 -6.8125 1.25 -8.4375 C 1.25 -10.0625 1.628906 -11.53125 2.390625 -12.84375 C 3.160156 -14.15625 4.21875 -15.179688 5.5625 -15.921875 C 6.914062 -16.660156 8.429688 -17.03125 10.109375 -17.03125 C 11.359375 -17.03125 12.515625 -16.820312 13.578125 -16.40625 C 14.640625 -15.988281 15.539062 -15.378906 16.28125 -14.578125 L 15.15625 -13.4375 C 13.832031 -14.769531 12.164062 -15.4375 10.15625 -15.4375 C 8.820312 -15.4375 7.609375 -15.128906 6.515625 -14.515625 C 5.421875 -13.910156 4.5625 -13.078125 3.9375 -12.015625 C 3.320312 -10.953125 3.015625 -9.757812 3.015625 -8.4375 C 3.015625 -7.125 3.320312 -5.9375 3.9375 -4.875 C 4.5625 -3.8125 5.421875 -2.972656 6.515625 -2.359375 C 7.609375 -1.753906 8.820312 -1.453125 10.15625 -1.453125 C 12.1875 -1.453125 13.851562 -2.125 15.15625 -3.46875 L 16.28125 -2.34375 C 15.539062 -1.539062 14.632812 -0.925781 13.5625 -0.5 C 12.5 -0.0703125 11.335938 0.140625 10.078125 0.140625 Z M 10.078125 0.140625 "/></g></g></g><g fill="#ffffff" fill-opacity="1"><g transform="translate(121.521602, 273.89595)"><g><path d="M 14.6875 -1.546875 L 14.6875 0 L 2.75 0 L 2.75 -16.890625 L 14.328125 -16.890625 L 14.328125 -15.34375 L 4.53125 -15.34375 L 4.53125 -9.34375 L 13.265625 -9.34375 L 13.265625 -7.8125 L 4.53125 -7.8125 L 4.53125 -1.546875 Z M 14.6875 -1.546875 "/></g></g></g><g fill="#ffffff" fill-opacity="1"><g transform="translate(144.27767, 273.89595)"><g><path d="M 7.40625 0.140625 C 6.15625 0.140625 4.953125 -0.0546875 3.796875 -0.453125 C 2.648438 -0.859375 1.765625 -1.390625 1.140625 -2.046875 L 1.828125 -3.421875 C 2.441406 -2.816406 3.253906 -2.320312 4.265625 -1.9375 C 5.285156 -1.5625 6.332031 -1.375 7.40625 -1.375 C 8.914062 -1.375 10.046875 -1.648438 10.796875 -2.203125 C 11.554688 -2.765625 11.9375 -3.484375 11.9375 -4.359375 C 11.9375 -5.035156 11.734375 -5.578125 11.328125 -5.984375 C 10.921875 -6.390625 10.414062 -6.695312 9.8125 -6.90625 C 9.21875 -7.125 8.390625 -7.363281 7.328125 -7.625 C 6.054688 -7.945312 5.039062 -8.253906 4.28125 -8.546875 C 3.53125 -8.847656 2.882812 -9.300781 2.34375 -9.90625 C 1.8125 -10.519531 1.546875 -11.351562 1.546875 -12.40625 C 1.546875 -13.25 1.769531 -14.019531 2.21875 -14.71875 C 2.664062 -15.425781 3.351562 -15.988281 4.28125 -16.40625 C 5.21875 -16.820312 6.378906 -17.03125 7.765625 -17.03125 C 8.734375 -17.03125 9.675781 -16.894531 10.59375 -16.625 C 11.519531 -16.363281 12.320312 -16 13 -15.53125 L 12.40625 -14.109375 C 11.695312 -14.578125 10.9375 -14.925781 10.125 -15.15625 C 9.320312 -15.394531 8.535156 -15.515625 7.765625 -15.515625 C 6.285156 -15.515625 5.171875 -15.226562 4.421875 -14.65625 C 3.679688 -14.082031 3.3125 -13.347656 3.3125 -12.453125 C 3.3125 -11.773438 3.515625 -11.226562 3.921875 -10.8125 C 4.328125 -10.40625 4.835938 -10.09375 5.453125 -9.875 C 6.078125 -9.65625 6.914062 -9.421875 7.96875 -9.171875 C 9.195312 -8.859375 10.191406 -8.550781 10.953125 -8.25 C 11.722656 -7.957031 12.375 -7.507812 12.90625 -6.90625 C 13.4375 -6.300781 13.703125 -5.488281 13.703125 -4.46875 C 13.703125 -3.613281 13.472656 -2.832031 13.015625 -2.125 C 12.554688 -1.425781 11.851562 -0.875 10.90625 -0.46875 C 9.957031 -0.0625 8.789062 0.140625 7.40625 0.140625 Z M 7.40625 0.140625 "/></g></g></g><g fill="#ffffff" fill-opacity="1"><g transform="translate(165.730762, 273.89595)"><g><path d="M 7.40625 0.140625 C 6.15625 0.140625 4.953125 -0.0546875 3.796875 -0.453125 C 2.648438 -0.859375 1.765625 -1.390625 1.140625 -2.046875 L 1.828125 -3.421875 C 2.441406 -2.816406 3.253906 -2.320312 4.265625 -1.9375 C 5.285156 -1.5625 6.332031 -1.375 7.40625 -1.375 C 8.914062 -1.375 10.046875 -1.648438 10.796875 -2.203125 C 11.554688 -2.765625 11.9375 -3.484375 11.9375 -4.359375 C 11.9375 -5.035156 11.734375 -5.578125 11.328125 -5.984375 C 10.921875 -6.390625 10.414062 -6.695312 9.8125 -6.90625 C 9.21875 -7.125 8.390625 -7.363281 7.328125 -7.625 C 6.054688 -7.945312 5.039062 -8.253906 4.28125 -8.546875 C 3.53125 -8.847656 2.882812 -9.300781 2.34375 -9.90625 C 1.8125 -10.519531 1.546875 -11.351562 1.546875 -12.40625 C 1.546875 -13.25 1.769531 -14.019531 2.21875 -14.71875 C 2.664062 -15.425781 3.351562 -15.988281 4.28125 -16.40625 C 5.21875 -16.820312 6.378906 -17.03125 7.765625 -17.03125 C 8.734375 -17.03125 9.675781 -16.894531 10.59375 -16.625 C 11.519531 -16.363281 12.320312 -16 13 -15.53125 L 12.40625 -14.109375 C 11.695312 -14.578125 10.9375 -14.925781 10.125 -15.15625 C 9.320312 -15.394531 8.535156 -15.515625 7.765625 -15.515625 C 6.285156 -15.515625 5.171875 -15.226562 4.421875 -14.65625 C 3.679688 -14.082031 3.3125 -13.347656 3.3125 -12.453125 C 3.3125 -11.773438 3.515625 -11.226562 3.921875 -10.8125 C 4.328125 -10.40625 4.835938 -10.09375 5.453125 -9.875 C 6.078125 -9.65625 6.914062 -9.421875 7.96875 -9.171875 C 9.195312 -8.859375 10.191406 -8.550781 10.953125 -8.25 C 11.722656 -7.957031 12.375 -7.507812 12.90625 -6.90625 C 13.4375 -6.300781 13.703125 -5.488281 13.703125 -4.46875 C 13.703125 -3.613281 13.472656 -2.832031 13.015625 -2.125 C 12.554688 -1.425781 11.851562 -0.875 10.90625 -0.46875 C 9.957031 -0.0625 8.789062 0.140625 7.40625 0.140625 Z M 7.40625 0.140625 "/></g></g></g><g fill="#ffffff" fill-opacity="1"><g transform="translate(187.183855, 273.89595)"><g><path d="M 2.75 -16.890625 L 4.53125 -16.890625 L 4.53125 0 L 2.75 0 Z M 2.75 -16.890625 "/></g></g></g><g fill="#ffffff" fill-opacity="1"><g transform="translate(201.084651, 273.89595)"><g><path d="M 13.390625 -8.703125 C 14.492188 -8.460938 15.347656 -7.984375 15.953125 -7.265625 C 16.554688 -6.554688 16.859375 -5.640625 16.859375 -4.515625 C 16.859375 -3.066406 16.320312 -1.953125 15.25 -1.171875 C 14.1875 -0.390625 12.609375 0 10.515625 0 L 2.75 0 L 2.75 -16.890625 L 10.03125 -16.890625 C 11.914062 -16.890625 13.375 -16.507812 14.40625 -15.75 C 15.445312 -15 15.96875 -13.929688 15.96875 -12.546875 C 15.96875 -11.609375 15.738281 -10.8125 15.28125 -10.15625 C 14.820312 -9.507812 14.191406 -9.023438 13.390625 -8.703125 Z M 4.53125 -15.421875 L 4.53125 -9.28125 L 9.921875 -9.28125 C 11.285156 -9.28125 12.335938 -9.539062 13.078125 -10.0625 C 13.816406 -10.59375 14.1875 -11.359375 14.1875 -12.359375 C 14.1875 -13.347656 13.816406 -14.101562 13.078125 -14.625 C 12.335938 -15.15625 11.285156 -15.421875 9.921875 -15.421875 Z M 10.5 -1.46875 C 12.007812 -1.46875 13.148438 -1.722656 13.921875 -2.234375 C 14.691406 -2.753906 15.078125 -3.5625 15.078125 -4.65625 C 15.078125 -6.757812 13.550781 -7.8125 10.5 -7.8125 L 4.53125 -7.8125 L 4.53125 -1.46875 Z M 10.5 -1.46875 "/></g></g></g><g fill="#ffffff" fill-opacity="1"><g transform="translate(225.89165, 273.89595)"><g><path d="M 2.75 -16.890625 L 4.53125 -16.890625 L 4.53125 0 L 2.75 0 Z M 2.75 -16.890625 "/></g></g></g><g fill="#ffffff" fill-opacity="1"><g transform="translate(239.792439, 273.89595)"><g><path d="M 2.75 -16.890625 L 4.53125 -16.890625 L 4.53125 -1.546875 L 14 -1.546875 L 14 0 L 2.75 0 Z M 2.75 -16.890625 "/></g></g></g><g fill="#ffffff" fill-opacity="1"><g transform="translate(260.618181, 273.89595)"><g><path d="M 2.75 -16.890625 L 4.53125 -16.890625 L 4.53125 0 L 2.75 0 Z M 2.75 -16.890625 "/></g></g></g><g fill="#ffffff" fill-opacity="1"><g transform="translate(274.51897, 273.89595)"><g><path d="M 6.03125 -15.34375 L 0.09375 -15.34375 L 0.09375 -16.890625 L 13.75 -16.890625 L 13.75 -15.34375 L 7.8125 -15.34375 L 7.8125 0 L 6.03125 0 Z M 6.03125 -15.34375 "/></g></g></g><g fill="#ffffff" fill-opacity="1"><g transform="translate(294.982781, 273.89595)"><g><path d="M 8.546875 -5.84375 L 8.546875 0 L 6.78125 0 L 6.78125 -5.84375 L 0.03125 -16.890625 L 1.9375 -16.890625 L 7.71875 -7.40625 L 13.515625 -16.890625 L 15.296875 -16.890625 Z M 8.546875 -5.84375 "/></g></g></g><g fill="#ffffff" fill-opacity="1"><g transform="translate(111.521298, 306.482689)"><g><path d="M 10.078125 0.140625 C 8.410156 0.140625 6.90625 -0.226562 5.5625 -0.96875 C 4.21875 -1.707031 3.160156 -2.726562 2.390625 -4.03125 C 1.628906 -5.34375 1.25 -6.8125 1.25 -8.4375 C 1.25 -10.0625 1.628906 -11.53125 2.390625 -12.84375 C 3.160156 -14.15625 4.21875 -15.179688 5.5625 -15.921875 C 6.914062 -16.660156 8.429688 -17.03125 10.109375 -17.03125 C 11.359375 -17.03125 12.515625 -16.820312 13.578125 -16.40625 C 14.640625 -15.988281 15.539062 -15.378906 16.28125 -14.578125 L 15.15625 -13.4375 C 13.832031 -14.769531 12.164062 -15.4375 10.15625 -15.4375 C 8.820312 -15.4375 7.609375 -15.128906 6.515625 -14.515625 C 5.421875 -13.910156 4.5625 -13.078125 3.9375 -12.015625 C 3.320312 -10.953125 3.015625 -9.757812 3.015625 -8.4375 C 3.015625 -7.125 3.320312 -5.9375 3.9375 -4.875 C 4.5625 -3.8125 5.421875 -2.972656 6.515625 -2.359375 C 7.609375 -1.753906 8.820312 -1.453125 10.15625 -1.453125 C 12.1875 -1.453125 13.851562 -2.125 15.15625 -3.46875 L 16.28125 -2.34375 C 15.539062 -1.539062 14.632812 -0.925781 13.5625 -0.5 C 12.5 -0.0703125 11.335938 0.140625 10.078125 0.140625 Z M 10.078125 0.140625 "/></g></g></g><g fill="#ffffff" fill-opacity="1"><g transform="translate(135.483793, 306.482689)"><g><path d="M 16.859375 -16.890625 L 16.859375 0 L 15.109375 0 L 15.109375 -7.796875 L 4.53125 -7.796875 L 4.53125 0 L 2.75 0 L 2.75 -16.890625 L 4.53125 -16.890625 L 4.53125 -9.359375 L 15.109375 -9.359375 L 15.109375 -16.890625 Z M 16.859375 -16.890625 "/></g></g></g><g fill="#ffffff" fill-opacity="1"><g transform="translate(161.714394, 306.482689)"><g><path d="M 14.6875 -1.546875 L 14.6875 0 L 2.75 0 L 2.75 -16.890625 L 14.328125 -16.890625 L 14.328125 -15.34375 L 4.53125 -15.34375 L 4.53125 -9.34375 L 13.265625 -9.34375 L 13.265625 -7.8125 L 4.53125 -7.8125 L 4.53125 -1.546875 Z M 14.6875 -1.546875 "/></g></g></g><g fill="#ffffff" fill-opacity="1"><g transform="translate(184.470461, 306.482689)"><g><path d="M 10.078125 0.140625 C 8.410156 0.140625 6.90625 -0.226562 5.5625 -0.96875 C 4.21875 -1.707031 3.160156 -2.726562 2.390625 -4.03125 C 1.628906 -5.34375 1.25 -6.8125 1.25 -8.4375 C 1.25 -10.0625 1.628906 -11.53125 2.390625 -12.84375 C 3.160156 -14.15625 4.21875 -15.179688 5.5625 -15.921875 C 6.914062 -16.660156 8.429688 -17.03125 10.109375 -17.03125 C 11.359375 -17.03125 12.515625 -16.820312 13.578125 -16.40625 C 14.640625 -15.988281 15.539062 -15.378906 16.28125 -14.578125 L 15.15625 -13.4375 C 13.832031 -14.769531 12.164062 -15.4375 10.15625 -15.4375 C 8.820312 -15.4375 7.609375 -15.128906 6.515625 -14.515625 C 5.421875 -13.910156 4.5625 -13.078125 3.9375 -12.015625 C 3.320312 -10.953125 3.015625 -9.757812 3.015625 -8.4375 C 3.015625 -7.125 3.320312 -5.9375 3.9375 -4.875 C 4.5625 -3.8125 5.421875 -2.972656 6.515625 -2.359375 C 7.609375 -1.753906 8.820312 -1.453125 10.15625 -1.453125 C 12.1875 -1.453125 13.851562 -2.125 15.15625 -3.46875 L 16.28125 -2.34375 C 15.539062 -1.539062 14.632812 -0.925781 13.5625 -0.5 C 12.5 -0.0703125 11.335938 0.140625 10.078125 0.140625 Z M 10.078125 0.140625 "/></g></g></g><g fill="#ffffff" fill-opacity="1"><g transform="translate(208.432957, 306.482689)"><g><path d="M 7.984375 -7.9375 L 4.53125 -4.4375 L 4.53125 0 L 2.75 0 L 2.75 -16.890625 L 4.53125 -16.890625 L 4.53125 -6.6875 L 14.453125 -16.890625 L 16.5 -16.890625 L 9.1875 -9.234375 L 17.015625 0 L 14.890625 0 Z M 7.984375 -7.9375 "/></g></g></g><g fill="#ffffff" fill-opacity="1"><g transform="translate(232.202408, 306.482689)"><g><path d="M 14.6875 -1.546875 L 14.6875 0 L 2.75 0 L 2.75 -16.890625 L 14.328125 -16.890625 L 14.328125 -15.34375 L 4.53125 -15.34375 L 4.53125 -9.34375 L 13.265625 -9.34375 L 13.265625 -7.8125 L 4.53125 -7.8125 L 4.53125 -1.546875 Z M 14.6875 -1.546875 "/></g></g></g><g fill="#ffffff" fill-opacity="1"><g transform="translate(254.958468, 306.482689)"><g><path d="M 14.28125 0 L 10.421875 -5.421875 C 9.984375 -5.378906 9.535156 -5.359375 9.078125 -5.359375 L 4.53125 -5.359375 L 4.53125 0 L 2.75 0 L 2.75 -16.890625 L 9.078125 -16.890625 C 11.222656 -16.890625 12.90625 -16.375 14.125 -15.34375 C 15.351562 -14.3125 15.96875 -12.894531 15.96875 -11.09375 C 15.96875 -9.78125 15.632812 -8.664062 14.96875 -7.75 C 14.300781 -6.84375 13.347656 -6.191406 12.109375 -5.796875 L 16.234375 0 Z M 9.015625 -6.875 C 10.691406 -6.875 11.972656 -7.242188 12.859375 -7.984375 C 13.742188 -8.722656 14.1875 -9.757812 14.1875 -11.09375 C 14.1875 -12.457031 13.742188 -13.503906 12.859375 -14.234375 C 11.972656 -14.972656 10.691406 -15.34375 9.015625 -15.34375 L 4.53125 -15.34375 L 4.53125 -6.875 Z M 9.015625 -6.875 "/></g></g></g></svg>